<svg width="40" height="40" viewBox="0 0 40 40" fill="none" xmlns="http://www.w3.org/2000/svg">
<path d="M28.9885 20.0565C28.9885 15.1316 24.9816 11.1248 20.0567 11.1248C15.1319 11.1248 11.125 15.1316 11.125 20.0565C11.125 24.9814 15.1319 28.9882 20.0567 28.9882C24.9816 28.9882 28.9885 24.9814 28.9885 20.0565ZM20.0567 27.674C15.8564 27.674 12.4392 24.2569 12.4392 20.0565C12.4392 15.8561 15.8564 12.439 20.0567 12.439C24.2571 12.439 27.6742 15.8561 27.6742 20.0565C27.6742 24.2569 24.2571 27.674 20.0567 27.674Z" fill="#C2A144"/>
<path d="M19.3338 17.1239H20.8926C21.457 17.1239 21.9161 17.5831 21.9161 18.1478C21.9161 18.5107 22.2103 18.8049 22.5732 18.8049C22.9361 18.8049 23.2303 18.5107 23.2303 18.1478C23.2303 16.8586 22.1818 15.8097 20.8926 15.8097H20.7132V15.2379C20.7132 14.875 20.419 14.5808 20.0561 14.5808C19.6932 14.5808 19.399 14.875 19.399 15.2379V15.8097H19.3338C17.9817 15.8097 16.8818 16.9096 16.8818 18.2617C16.8818 19.6138 17.9817 20.7137 19.3338 20.7137H20.7783C21.4056 20.7137 21.9161 21.2242 21.9161 21.8515C21.9161 22.4787 21.4056 22.9889 20.7783 22.9889H19.2196C18.6552 22.9889 18.1961 22.5298 18.1961 21.9654C18.1961 21.6025 17.9018 21.3083 17.539 21.3083C17.1761 21.3083 16.8818 21.6025 16.8818 21.9654C16.8818 23.2546 17.9304 24.3031 19.2196 24.3031H19.399V24.8749C19.399 25.2378 19.6932 25.532 20.0561 25.532C20.419 25.532 20.7132 25.2378 20.7132 24.8749V24.3031H20.7783C22.1304 24.3031 23.2303 23.2032 23.2303 21.8515C23.2303 20.4994 22.1304 19.3995 20.7783 19.3995H19.3338C18.7066 19.3995 18.1961 18.889 18.1961 18.2617C18.1961 17.6344 18.7066 17.1239 19.3338 17.1239Z" fill="#C2A144"/>
<path d="M28.8846 12.9895C30.0586 14.4539 30.8537 16.2061 31.1842 18.0565C31.24 18.3687 31.5105 18.5962 31.8272 18.5981L38.332 18.635H38.3358C38.5222 18.635 38.7 18.5558 38.8245 18.4172C38.9499 18.2776 39.0099 18.0908 38.9888 17.9044C38.5376 13.8969 36.8583 10.2 34.1329 7.21374C34.0062 7.07512 33.8172 6.99234 33.6385 6.99972C33.4508 7.00229 33.273 7.08507 33.1501 7.22721L28.9 12.1489C28.6931 12.3889 28.6863 12.7421 28.8846 12.9895ZM33.651 8.65792C35.7417 11.1455 37.0896 14.1132 37.5847 17.3166L32.3695 17.2868C31.9908 15.5991 31.2641 13.998 30.2441 12.6035L33.651 8.65792Z" fill="#C2A144"/>
<path d="M15.4464 9.12992C15.6062 9.40361 15.9396 9.52457 16.236 9.41708C19.4212 8.2729 22.9035 8.62328 25.7594 10.2959C25.8631 10.3566 25.9776 10.3861 26.0912 10.3861C26.277 10.3861 26.4602 10.3075 26.5889 10.1586L30.8431 5.23213C30.9657 5.08998 31.0218 4.90196 30.9971 4.71586C30.9724 4.52977 30.8694 4.36324 30.7138 4.258C27.5614 2.12653 23.876 1 20.0565 1C17.4271 1 14.8749 1.52974 12.4714 2.57413C12.2991 2.64889 12.1672 2.79392 12.1088 2.97232C12.0504 3.15072 12.071 3.3458 12.1656 3.50783L15.4464 9.12992ZM20.0565 2.31424C23.3639 2.31424 26.5629 3.2213 29.355 4.94432L25.9439 8.89473C24.1266 7.93279 22.1026 7.4268 20.0565 7.4268C18.7968 7.4268 17.5397 7.62124 16.3121 8.00563L13.6814 3.49788C15.7159 2.7121 17.857 2.31424 20.0565 2.31424Z" fill="#C2A144"/>
<path d="M18.0909 31.1896C12.6732 30.2386 8.74104 25.5563 8.74104 20.0565C8.74104 16.7731 10.1743 13.6528 12.6732 11.495C12.9128 11.288 12.9709 10.9399 12.8114 10.6665L9.53292 5.04798C9.43826 4.88563 9.27847 4.77172 9.0943 4.73483C8.90852 4.69761 8.71858 4.74188 8.56874 4.85515C3.75874 8.49625 1 14.0368 1 20.0565C1 29.7955 8.29248 37.9376 17.9625 38.9961C17.9866 38.9987 18.0103 39 18.0341 39C18.1961 39 18.3533 38.94 18.4749 38.8302C18.6142 38.7041 18.6928 38.5248 18.6912 38.3371L18.6344 31.831C18.6315 31.514 18.4031 31.2445 18.0909 31.1896ZM2.31424 20.0565C2.31424 14.7001 4.661 9.75081 8.7789 6.36318L11.4071 10.8674C8.87066 13.2549 7.4268 16.5732 7.4268 20.0565C7.4268 26.0119 11.5572 31.1084 17.325 32.3774L17.3705 37.594C8.7359 36.2877 2.31424 28.8753 2.31424 20.0565Z" fill="#C2A144"/>
<path d="M38.3134 21.6851L31.8147 21.6482H31.8109C31.4955 21.6482 31.2244 21.8725 31.1653 22.1824C30.309 26.6821 26.7128 30.2899 22.2169 31.16C21.9057 31.2204 21.6817 31.4941 21.6846 31.8111L21.7414 38.3078C21.743 38.4955 21.8248 38.6736 21.9663 38.7971C22.0866 38.902 22.2406 38.9592 22.3985 38.9592C22.4261 38.9592 22.4537 38.9576 22.4813 38.954C31.113 37.8557 37.8899 31.058 38.9616 22.4231C38.9847 22.237 38.9272 22.0496 38.8034 21.9084C38.6792 21.7676 38.5011 21.6861 38.3134 21.6851ZM23.0489 37.5413L23.0033 32.3341C27.5926 31.2306 31.2529 27.5591 32.3416 22.9653L37.5511 22.9952C36.3122 30.4394 30.4896 36.2797 23.0489 37.5413Z" fill="#C2A144"/>
</svg>
