<svg width="40" height="40" viewBox="0 0 40 40" fill="none" xmlns="http://www.w3.org/2000/svg">
<path fill-rule="evenodd" clip-rule="evenodd" d="M24.9723 5.6398C23.0955 9.55448 20.4634 13.0704 17.359 15.8077C15.3081 17.6157 13.0457 19.0917 10.6883 20.1717C17.2007 19.1556 23.7196 14.1857 28.0049 6.7208C28.1446 6.47846 28.4362 6.37541 28.6914 6.47846L30 7.00703L28.7081 1L23.7615 4.48534L24.6761 4.85553C24.8214 4.91373 24.936 5.03204 24.9918 5.18088C25.0487 5.33067 25.0412 5.49669 24.9723 5.6398ZM12.973 39V27.5288H10V39H12.973ZM20.4159 39V22.8451H17.4428V39H20.4159ZM24.8857 17.5785H27.8587V39H24.8857V17.5785Z" fill="#16A34A"/>
</svg>
