<svg width="40" height="40" viewBox="0 0 40 40" fill="none" xmlns="http://www.w3.org/2000/svg">
<g clip-path="url(#clip0_143_290)">
<path fill-rule="evenodd" clip-rule="evenodd" d="M20.0001 1.34496L35.5295 10.3125L30.3883 13.2796L14.859 4.31566L20.0001 1.34496ZM20.6251 38.2911L36.1546 29.3274V11.3961L31.013 14.3631V21.9189C31.0134 22.0288 30.9847 22.1368 30.9298 22.232C30.8749 22.3272 30.7958 22.4061 30.7005 22.4607L27.2428 24.4585C27.1478 24.5134 27.0399 24.5422 26.9302 24.5422C26.8204 24.5422 26.7126 24.5133 26.6175 24.4583C26.5225 24.4034 26.4436 24.3244 26.3888 24.2293C26.334 24.1342 26.3052 24.0264 26.3053 23.9166V17.0796L20.6251 20.3599V38.2911ZM27.5554 16.3608L29.7632 15.0855V21.5578L27.5554 22.833V16.3608ZM13.6095 5.03808L11.4016 6.30973L26.9305 15.2772L29.1384 14.0019L13.6095 5.03808ZM10.1515 7.03215L4.47063 10.3125L20.0001 19.28L25.6802 15.9996L10.1515 7.03215ZM3.84586 11.3961V29.3274L19.3751 38.2911V20.3599L3.84586 11.3961ZM2.90836 30.2304L19.6876 39.9166C19.7823 39.9722 19.8902 40.0015 20.0001 40.0015C20.1099 40.0015 20.2178 39.9722 20.3126 39.9166L37.092 30.2304C37.1866 30.1749 37.2651 30.0958 37.3199 30.0008C37.3747 29.9058 37.4038 29.7982 37.4045 29.6886V10.3125C37.4047 10.2027 37.376 10.0947 37.3211 9.9996C37.2662 9.90445 37.1872 9.8255 37.092 9.77074L20.3126 0.0844127C20.218 0.02828 20.1101 -0.00134277 20.0001 -0.00134277C19.8901 -0.00134277 19.7822 0.02828 19.6876 0.0844127L2.90821 9.77066C2.81299 9.82542 2.73394 9.90437 2.67906 9.99952C2.62419 10.0947 2.59543 10.2026 2.59571 10.3125V29.6886C2.59632 29.7982 2.62546 29.9058 2.68025 30.0008C2.73504 30.0958 2.8136 30.1749 2.90821 30.2304H2.90836Z" fill="#6155F5"/>
</g>
<defs>
<clipPath id="clip0_143_290">
<rect width="40" height="40" fill="white"/>
</clipPath>
</defs>
</svg>
