<svg width="40" height="40" viewBox="0 0 40 40" fill="none" xmlns="http://www.w3.org/2000/svg">
<path d="M19.9728 23.3333V5M19.9728 23.3333C17.32 23.3333 15.168 25.725 15.168 27.7083C15.168 30.625 17.32 35 19.9728 35C22.6256 35 24.7776 30.625 24.7776 27.7083C24.7776 25.725 22.6256 23.3333 19.9728 23.3333ZM8.76475 16.7133V35M6.69755 5.21667L5.44475 5.34667C5.22828 5.36893 5.01844 5.43694 4.82805 5.54654C4.63766 5.65614 4.47073 5.80502 4.33745 5.9841C4.20417 6.16318 4.10735 6.36868 4.05289 6.58806C3.99844 6.80743 3.9875 7.03607 4.02075 7.26L5.09275 14.4517C5.27355 15.67 6.28155 16.685 7.46555 16.685H10.064C11.248 16.685 12.256 15.67 12.4384 14.4517L13.5088 7.26C13.542 7.03607 13.5311 6.80743 13.4766 6.58806C13.4222 6.36868 13.3253 6.16318 13.1921 5.9841C13.0588 5.80502 12.8918 5.65614 12.7015 5.54654C12.5111 5.43694 12.3012 5.36893 12.0848 5.34667L10.8368 5.21667C9.46045 5.07331 8.07385 5.07331 6.69755 5.21667Z" stroke="#AD700C" stroke-width="2" stroke-linecap="round"/>
<path d="M29.5938 23.03V5.04333C31.4482 5.57667 34.5297 7.58833 35.0417 12.5467L35.9586 20.07C36.1186 21.3917 35.7969 22.71 34.5345 22.9367C33.4785 23.125 31.877 23.1867 29.5938 23.03ZM29.5938 23.03V35" stroke="#AD700C" stroke-width="2" stroke-linecap="round" stroke-linejoin="round"/>
</svg>
