<svg width="40" height="40" viewBox="0 0 40 40" fill="none" xmlns="http://www.w3.org/2000/svg">
<path fill-rule="evenodd" clip-rule="evenodd" d="M9.18468 33.5806L9.6046 34.3226C9.60491 34.3231 9.60515 34.3236 9.60546 34.3241C9.99958 35.0251 9.74962 35.9196 9.0526 36.3133L7.46515 37.213C7.46452 37.2134 7.4639 37.2137 7.46319 37.2141C6.76225 37.6082 5.86774 37.3582 5.47386 36.6609L0.805621 28.4121C0.407896 27.7104 0.657857 26.8151 1.35574 26.4209L2.94515 25.5211L2.9457 25.5208C3.64319 25.1268 4.53809 25.3744 4.93527 26.0719L4.93613 26.0734L5.27072 26.6646L9.37127 24.2905C10.0177 23.9166 10.6715 23.6103 11.3418 23.4599C10.8116 21.5661 11.0072 19.4193 12.222 17.2848L12.2223 17.2842C13.1546 15.6503 14.5772 13.8195 16.4966 11.7046C15.9652 11.3653 15.6108 10.77 15.6108 10.0947C15.6108 9.20518 16.2287 8.45271 17.0564 8.24549C16.5222 7.71137 15.9771 7.1662 15.9775 7.16659C15.2201 6.41231 15.2192 5.17577 15.9766 4.41843C16.6159 3.77914 17.6317 3.66918 18.3977 4.15718C18.3982 4.15749 18.3987 4.1578 18.3993 4.1582C18.4128 4.1669 18.4282 4.16965 18.4431 4.16345C18.4582 4.15726 18.4688 4.14565 18.4723 4.12973L18.4724 4.12894C18.661 3.25718 19.443 2.59851 20.3703 2.59851C21.2786 2.59851 22.0731 3.24039 22.2678 4.12706C22.268 4.128 22.2682 4.12886 22.2684 4.12973C22.2718 4.14565 22.2826 4.15726 22.2975 4.16345C22.3124 4.16965 22.3278 4.1669 22.3411 4.15835C23.0921 3.67624 24.1089 3.76322 24.7641 4.41843L24.765 4.4193C25.5188 5.17616 25.5179 6.41192 24.7641 7.16573L23.6844 8.24549C24.512 8.45271 25.1299 9.20518 25.1299 10.0947C25.1299 10.7704 24.775 11.366 24.2431 11.7051C25.5186 13.1096 26.5742 14.3886 27.4121 15.568L28.1939 14.8869C28.3848 14.7208 28.6567 14.6854 28.8836 14.7973L33.5177 17.0827L37.1008 13.3426L36.5322 13.4072C36.188 13.4463 35.877 13.1987 35.8379 12.8546C35.7988 12.5105 36.0465 12.1994 36.3906 12.1603L38.6868 11.8995C38.8733 11.8784 39.0595 11.9418 39.1943 12.0725C39.3291 12.2031 39.3983 12.3874 39.3829 12.5744L39.1834 14.9973C39.155 15.3424 38.8517 15.5995 38.5066 15.5711C38.1615 15.5427 37.9044 15.2395 37.9328 14.8943L37.9873 14.2313L34.1057 18.2829C33.9163 18.4806 33.6206 18.5327 33.3751 18.4116L28.7032 16.1075L28.1168 16.6184C28.2589 16.8442 28.392 17.0662 28.5165 17.2847C29.8383 19.6056 29.9571 21.9403 29.2441 23.9496C30.0181 23.8649 30.6074 24.036 31.0255 24.3165C31.7084 24.7747 32.0262 25.5564 32.0058 26.3243C31.9851 27.1009 31.6132 27.8416 31.0043 28.2166L20.733 34.5405C19.6368 35.2171 18.4361 35.3761 17.1921 35.0442L17.1913 35.0441L9.99166 33.1145L9.18468 33.5806ZM5.88876 27.7568L8.56656 32.4883L9.58923 31.8978C9.73339 31.8146 9.90468 31.792 10.0654 31.8351L17.5157 33.8318C18.4142 34.0715 19.2821 33.9613 20.0739 33.4726L20.0745 33.4722L30.3462 27.1481C30.6158 26.982 30.7422 26.6348 30.7513 26.291C30.7779 25.2885 29.7711 24.5674 27.4085 25.9437L21.7482 29.2404C20.827 29.7772 19.8616 29.926 18.8095 29.7586C18.8088 29.7584 18.8081 29.7584 18.8073 29.7582C18.8073 29.7582 18.1052 29.6439 18.1048 29.6439C18.0964 29.6425 18.0879 29.6409 18.0795 29.6392C18.0792 29.6392 18.0789 29.6391 18.0786 29.6391C16.7999 29.3766 15.614 28.9904 14.298 28.6368C13.9636 28.5469 13.7651 28.2024 13.855 27.8679C13.9448 27.5335 14.2893 27.335 14.6237 27.4249C15.9055 27.7693 17.061 28.1471 18.3052 28.4045C18.899 28.4693 19.3363 28.2278 19.4729 27.7187L19.473 27.7184C19.611 27.2053 19.2882 26.7093 18.7908 26.5305C16.5207 26.113 14.299 25.1718 12.9361 24.7299L12.9358 24.7298C11.8964 24.3922 10.9459 24.8295 9.99958 25.3768L5.88876 27.7568ZM12.6299 23.3837C12.8586 23.4105 13.0896 23.4603 13.3233 23.5362C14.6579 23.9689 16.8367 24.9022 19.0603 25.304C19.0879 25.309 19.1152 25.3159 19.1419 25.3246C20.2989 25.6991 21.0008 26.8696 20.6849 28.0443C20.6502 28.1736 20.6074 28.2964 20.5569 28.4122C20.7463 28.3481 20.9327 28.2632 21.1164 28.1562L26.7769 24.8594C27.0942 24.6746 27.3953 24.5213 27.6806 24.396C28.667 22.5271 28.7375 20.2086 27.426 17.9056C27.3411 17.7566 27.2519 17.6057 27.1584 17.4532L23.9735 20.2275C23.7123 20.4549 23.3157 20.4276 23.0882 20.1665C22.8608 19.9053 22.8881 19.5087 23.1491 19.2813L26.4615 16.3959C25.5344 15.0752 24.3175 13.6253 22.8128 12.0025H17.9259C15.8277 14.2675 14.2882 16.1958 13.3124 17.9058C12.2295 19.8089 12.0877 21.7217 12.6299 23.3837ZM18.7745 8.18886H21.9662L23.8767 6.27835C24.1437 6.0113 24.143 5.57365 23.8762 5.30526C23.6443 5.0738 23.2847 5.04384 23.0191 5.21435L23.0188 5.21451C22.6474 5.45271 22.2234 5.49177 21.8157 5.3222C21.4089 5.15302 21.1353 4.82651 21.0416 4.3942C20.9719 4.08094 20.6916 3.85341 20.3703 3.85341C20.0424 3.85341 19.7657 4.08604 19.6992 4.39349C19.6063 4.82526 19.3325 5.15271 18.9249 5.3222C18.5172 5.49177 18.0932 5.45271 17.7234 5.21553C17.4516 5.04235 17.0908 5.0789 16.864 5.30573C16.5961 5.57357 16.5953 6.01075 16.863 6.27749L16.864 6.27835L18.7745 8.18886ZM20.3197 22.9854C20.3281 22.985 20.3367 22.9849 20.3452 22.9849C20.3562 22.9849 20.3671 22.9852 20.3779 22.9857C20.3919 22.9856 20.4059 22.9854 20.4198 22.9851C20.815 22.9754 21.2546 22.8771 21.5784 22.6541C21.8135 22.4922 21.9724 22.2491 21.9317 21.9071C21.8786 21.4739 21.5845 21.2347 21.2411 21.0788C20.9313 20.9383 20.5795 20.8607 20.2502 20.8066C19.0652 20.6128 17.7971 20.0214 17.7288 18.6152V18.6149C17.6772 17.5402 18.3382 16.7511 19.2528 16.3912C19.4021 16.3325 19.5579 16.2858 19.7178 16.2518V15.8315C19.7178 15.4852 19.999 15.204 20.3452 15.204C20.6915 15.204 20.9727 15.4852 20.9727 15.8315V16.2445C21.8004 16.4118 22.5695 16.9315 22.9617 17.8673C23.0956 18.1867 22.945 18.5547 22.6256 18.6886C22.3062 18.8224 21.9382 18.6718 21.8044 18.3524C21.539 17.7194 20.9593 17.4431 20.3884 17.4366C20.3741 17.4376 20.3597 17.438 20.3452 17.438C20.3346 17.438 20.3242 17.4378 20.3138 17.4373C20.1048 17.4435 19.899 17.4855 19.7122 17.559C19.2934 17.7238 18.9586 18.0624 18.9822 18.5545C19.001 18.9395 19.2497 19.1603 19.5472 19.3056C19.8261 19.4419 20.1485 19.5184 20.4528 19.5682L20.4531 19.5682C21.6683 19.7677 23.0019 20.3148 23.1775 21.756L23.1775 21.7572C23.3481 23.1796 22.1812 23.9861 20.9727 24.1893V24.5914C20.9727 24.9378 20.6915 25.2189 20.3452 25.2189C19.999 25.2189 19.7178 24.9378 19.7178 24.5914V24.1809C18.6851 23.9863 17.7889 23.3199 17.5165 22.2262C17.4328 21.8901 17.6378 21.5494 17.9738 21.4657C18.3099 21.382 18.6506 21.5869 18.7342 21.923C18.9135 22.6429 19.6146 22.9727 20.3197 22.9854ZM17.5166 10.7476H23.2241C23.5823 10.7476 23.875 10.454 23.875 10.0947C23.875 9.73671 23.582 9.44377 23.2241 9.44377H17.5166C17.1586 9.44377 16.8657 9.73671 16.8657 10.0947C16.8657 10.454 17.1583 10.7476 17.5166 10.7476ZM3.84468 26.6927L3.84397 26.6915C3.78719 26.5936 3.66139 26.5579 3.56288 26.6135L1.97401 27.5129L1.97346 27.5133C1.87535 27.5686 1.84146 27.6947 1.89731 27.7933L1.89754 27.7936L6.56601 36.0428L6.56625 36.0433C6.62201 36.142 6.74876 36.1759 6.8479 36.1204L8.43386 35.2215L8.43464 35.221C8.53331 35.1653 8.56735 35.0385 8.51174 34.9394L3.84468 26.6927ZM3.30539 27.5282C3.6657 27.4746 4.00029 27.7233 4.05386 28.0836C4.10539 28.4439 3.8566 28.7806 3.49629 28.8322C3.13597 28.8857 2.80139 28.6348 2.74782 28.2745C2.69629 27.9142 2.94507 27.5796 3.30539 27.5282Z" fill="#16A34A"/>
</svg>
