<svg width="40" height="40" viewBox="0 0 40 40" fill="none" xmlns="http://www.w3.org/2000/svg">
<g clip-path="url(#clip0_310_100)">
<path fill-rule="evenodd" clip-rule="evenodd" d="M12.2666 23.0918C12.2312 22.9503 12.1411 22.8288 12.0161 22.7538C11.8911 22.6788 11.7414 22.6565 11.6 22.6918H8.14164C7.26877 22.6826 6.40127 22.8293 5.57997 23.1251C5.48467 23.14 5.39632 23.184 5.32708 23.2512C5.25783 23.3183 5.2111 23.4053 5.19331 23.5001C5.18281 23.5632 5.18451 23.6277 5.19831 23.6901C5.20631 23.7531 5.22711 23.8139 5.25943 23.8686C5.29174 23.9233 5.33489 23.9709 5.38623 24.0083C5.43757 24.0458 5.49602 24.0723 5.558 24.0864C5.61997 24.1005 5.68416 24.1017 5.74664 24.0901C6.42402 24.1546 7.09304 24.2881 7.74331 24.4884C8.06442 24.5151 8.38609 24.5151 8.70831 24.4884C9.03831 24.4862 9.36553 24.4529 9.68997 24.3884C10.4378 24.2373 11.1639 24.0151 11.8683 23.7218C12.0003 23.683 12.1137 23.5975 12.1873 23.4812C12.2609 23.365 12.2897 23.226 12.2683 23.0901M26.4566 27.4668C25.5497 27.2664 24.614 27.2325 23.695 27.3668C23.695 27.0001 23.6116 26.6334 23.5616 26.2668C23.4783 25.6034 23.3616 24.9534 23.2616 24.2884H25.2916C25.3543 24.2978 25.4181 24.2943 25.4794 24.2781C25.5406 24.262 25.5979 24.2336 25.6478 24.1946C25.6977 24.1556 25.7391 24.1069 25.7696 24.0514C25.8 23.9959 25.8189 23.9348 25.825 23.8718C25.8341 23.8083 25.8306 23.7437 25.8145 23.6817C25.7984 23.6196 25.7702 23.5614 25.7314 23.5104C25.6926 23.4593 25.6441 23.4165 25.5886 23.3844C25.5332 23.3523 25.4719 23.3316 25.4083 23.3234L23.4466 23.1734H23.1133C23.1133 22.7234 22.98 22.2918 22.93 21.8434C22.9431 21.7715 22.9404 21.6975 22.9218 21.6268C22.9033 21.556 22.8695 21.4902 22.8228 21.434C22.7761 21.3777 22.7176 21.3324 22.6514 21.3012C22.5853 21.27 22.5131 21.2537 22.44 21.2534C22.3667 21.2534 22.2943 21.2696 22.228 21.3007C22.1616 21.3317 22.1029 21.377 22.056 21.4333C22.0091 21.4896 21.9752 21.5555 21.9565 21.6264C21.9379 21.6973 21.9351 21.7713 21.9483 21.8434C21.9483 22.3434 21.9483 22.8418 21.865 23.3401C20.571 23.545 19.3511 24.078 18.3216 24.8884C17.9259 25.2288 17.6528 25.6898 17.5444 26.2005C17.436 26.7111 17.4983 27.2432 17.7216 27.7151C17.9883 28.2984 18.455 28.7651 19.0383 29.0301C19.768 29.3389 20.5589 29.4758 21.35 29.4301H22.065C22.065 29.7301 22.065 30.0284 22.1816 30.3118C22.2983 30.9768 22.4483 31.6418 22.5816 32.2901H21.6983C20.4862 32.1509 19.3297 31.7046 18.3383 30.9934C18.2231 30.9062 18.0784 30.8671 17.935 30.8846C17.7915 30.9021 17.6604 30.9747 17.5695 31.087C17.4786 31.1994 17.4349 31.3427 17.4478 31.4866C17.4606 31.6306 17.5289 31.7639 17.6383 31.8584C18.7874 32.723 20.1301 33.294 21.55 33.5218C22.0316 33.6051 22.515 33.6384 22.98 33.6718L23.23 34.7034C23.2401 34.7758 23.2646 34.8455 23.302 34.9083C23.3394 34.9712 23.389 35.0259 23.4478 35.0694C23.5066 35.1128 23.5735 35.1441 23.6446 35.1614C23.7156 35.1787 23.7894 35.1817 23.8616 35.1701C24.0096 35.1456 24.1418 35.0634 24.2293 34.9415C24.3168 34.8197 24.3524 34.6681 24.3283 34.5201V33.6534C24.8561 33.6312 25.3772 33.554 25.8916 33.4218C26.9118 33.1473 27.8233 32.5668 28.5033 31.7584C28.7955 31.409 28.9782 30.9813 29.0286 30.5286C29.079 30.076 28.9948 29.6185 28.7866 29.2134C28.5619 28.7603 28.2341 28.3663 27.8294 28.0629C27.4247 27.7596 26.9546 27.5554 26.4566 27.4668ZM21.25 27.6168C20.8212 27.6646 20.3873 27.6364 19.9683 27.5334C19.8154 27.5075 19.6696 27.4496 19.5407 27.3635C19.4117 27.2773 19.3024 27.1648 19.22 27.0334C18.9033 26.4168 19.22 25.9518 19.8033 25.5701C20.4175 25.1457 21.097 24.8247 21.815 24.6201V27.5651L21.25 27.6168ZM26.79 30.9434C26.3693 31.3535 25.8634 31.6659 25.3083 31.8584C24.9083 31.9918 24.4983 32.0806 24.0783 32.1251C24.0783 31.4251 24.0783 30.7268 23.945 30.0284V29.1618C24.4716 29.1218 24.9983 29.1218 25.525 29.1618C25.8546 29.1431 26.1831 29.2137 26.4759 29.3663C26.7686 29.5188 27.0148 29.7476 27.1883 30.0284C27.2216 30.3784 27.0383 30.6951 26.7883 30.9768L26.79 30.9434Z" fill="#38EBFF"/>
<path fill-rule="evenodd" clip-rule="evenodd" d="M34.2934 26.8667C34.028 25.9849 33.6289 25.1491 33.11 24.3884C32.4906 23.5114 31.8189 22.6727 31.0984 21.8767C31.7684 21.6267 32.3267 21.15 32.6784 20.5284C32.9058 20.101 33.0344 19.6279 33.0546 19.1442C33.0748 18.6604 32.9861 18.1783 32.795 17.7334C33.0539 17.6223 33.2928 17.4778 33.5117 17.3C34.048 16.7156 34.3579 15.9588 34.3854 15.1661C34.4129 14.3734 34.1562 13.5969 33.6617 12.9767C34.0512 12.7647 34.3675 12.4399 34.5691 12.0449C34.7708 11.6499 34.8484 11.2032 34.7917 10.7634C34.5845 10.2122 34.26 9.71252 33.8407 9.299C33.4215 8.88549 32.9174 8.56796 32.3634 8.36838C32.0387 8.20979 31.6978 8.08685 31.3467 8.00172C31.0056 7.90172 30.6567 7.83505 30.3 7.80172C29.2334 7.78727 28.1684 7.82616 27.105 7.91838L26.0084 8.01838C25.9084 7.95739 25.8022 7.90712 25.6917 7.86838L24.145 7.46838C23.7117 7.46838 23.2784 7.28505 22.83 7.23505C22.4922 7.20926 22.1529 7.20926 21.815 7.23505C20.8426 7.42144 19.9193 7.80733 19.1034 8.36838C17.2567 9.59838 15.0117 11.4617 14.33 12.045C13.8467 12.4 13.265 12.6034 12.665 12.6267H9.48836C9.42571 12.6222 9.36279 12.6304 9.30338 12.6507C9.24396 12.6711 9.18927 12.7033 9.14259 12.7453C9.0959 12.7873 9.05817 12.8383 9.03167 12.8953C9.00517 12.9522 8.99044 13.0139 8.98836 13.0767C8.98408 13.1414 8.99286 13.2063 9.01418 13.2676C9.03551 13.3288 9.06893 13.3851 9.11248 13.4332C9.15602 13.4812 9.20879 13.52 9.26764 13.5473C9.32649 13.5745 9.39021 13.5896 9.45503 13.5917C10.745 13.7634 12.0484 13.8184 13.3484 13.7584C13.9838 13.6924 14.5941 13.4753 15.1284 13.125C15.81 12.675 17.64 11.345 19.3367 10.2817C20.1167 9.68172 21.0034 9.23672 21.9484 8.96672C22.1706 8.94227 22.3928 8.94227 22.615 8.96672C23.0134 8.96672 23.4134 9.11672 23.795 9.18338L24.9934 9.53338C25.46 9.70005 25.7917 9.88172 25.8584 10.1817C25.925 10.4817 25.6917 10.665 25.3084 10.93C24.8665 11.2665 24.364 11.5149 23.8284 11.6617C23.2272 11.8062 22.6173 11.9006 21.9984 11.945C21.785 11.958 21.5851 12.054 21.4418 12.2127C21.2984 12.3713 21.223 12.5798 21.2317 12.7934C21.2484 12.9267 21.2484 13.06 21.2317 13.1934C21.3225 14.3385 20.9719 15.4751 20.2517 16.37C19.3317 17.3356 18.0879 17.9279 16.7584 18.0334C16.6859 18.0416 16.6158 18.0642 16.5522 18.0998C16.4886 18.1353 16.4326 18.1832 16.3876 18.2406C16.3427 18.298 16.3096 18.3637 16.2902 18.434C16.2709 18.5043 16.2657 18.5777 16.275 18.65C16.2871 18.7768 16.3442 18.895 16.4359 18.9834C16.5276 19.0717 16.6479 19.1243 16.775 19.1317C16.075 20.0467 15.4267 20.9784 14.8117 21.9434C14.0617 23.1245 13.3795 24.3445 12.765 25.6034C12.3228 26.5416 11.9609 27.5156 11.6834 28.515C11.4814 29.2042 11.3474 29.9115 11.2834 30.6267C11.2326 31.6913 11.4267 32.7534 11.8509 33.7312C12.2751 34.709 12.9179 35.5764 13.73 36.2667C16.0004 38.2562 18.8182 39.5143 21.815 39.8767C24.8293 40.2773 27.8924 39.694 30.5484 38.2134C31.8754 37.3992 32.9666 36.2524 33.7138 34.8865C34.4611 33.5207 34.8384 31.9833 34.8084 30.4267C34.833 29.8205 34.7995 29.2132 34.7084 28.6134C34.6045 28.0234 34.467 27.4401 34.2934 26.8667ZM31.43 19.7467C31.2106 20.0292 30.906 20.2335 30.5615 20.3295C30.2169 20.4256 29.8506 20.4082 29.5167 20.28C28.4186 20.1825 27.3641 19.8036 26.455 19.18C26.2212 19.0466 26.0309 18.8486 25.9067 18.6098C25.7826 18.371 25.7299 18.1014 25.755 17.8334C25.8094 17.597 25.9243 17.3787 26.0884 17.2L26.2217 17.1017C26.5817 17.2906 26.9539 17.4517 27.3384 17.585C28.2362 17.8905 29.1692 18.0804 30.115 18.15C30.6739 18.18 31.2284 18.1467 31.7784 18.05C31.8534 18.3408 31.8609 18.6449 31.8002 18.939C31.7396 19.2331 31.614 19.5094 31.43 19.7467ZM32.4434 16.0201C32.2182 16.1488 31.9682 16.2284 31.71 16.2534C31.2167 16.3034 30.7234 16.3034 30.23 16.2534C29.4314 16.1803 28.6409 16.0352 27.8684 15.82C27.4534 15.7317 27.0464 15.6091 26.6517 15.4534C26.935 15.205 26.57 14.3067 26.8184 13.7917C26.9139 13.5073 27.0528 13.2462 27.235 13.0084C27.8534 13.3634 28.53 13.605 29.2317 13.725C30.2751 13.9354 31.35 13.9354 32.3934 13.725L32.6267 13.6417C32.8467 13.9517 32.9834 14.3117 33.025 14.69C33.0345 14.9414 32.9869 15.1916 32.8858 15.4219C32.7848 15.6523 32.6346 15.8567 32.4434 16.0201ZM29.9834 9.41672L31.6467 10.0317C32.1717 10.2384 32.6284 10.59 32.9617 11.0467C33.1117 11.2634 32.9617 11.48 32.5784 11.7284L32.0134 12.0284C31.1934 12.295 30.33 12.4017 29.4684 12.345C28.9607 12.3075 28.4615 12.1952 27.9867 12.0117C27.948 11.9129 27.8789 11.8289 27.7893 11.772C27.6997 11.715 27.5943 11.6881 27.4884 11.695L27.2884 11.5617C27.6584 11.0917 27.825 10.4934 27.755 9.89838C27.7015 9.68445 27.6232 9.47749 27.5217 9.28172C28.3439 9.28505 29.1645 9.33116 29.9834 9.41672ZM29.5667 36.7317C27.2188 37.9645 24.5397 38.4186 21.9167 38.0284C19.3324 37.7083 16.8948 36.6512 14.895 34.9834C14.2558 34.4771 13.7364 33.8359 13.374 33.1055C13.0115 32.3751 12.815 31.5736 12.7984 30.7584C12.8299 29.9804 12.9587 29.2094 13.1817 28.4634C13.405 27.6812 13.6878 26.9212 14.03 26.1834C14.5556 24.9389 15.1545 23.73 15.8267 22.5567C16.511 21.4098 17.2548 20.2994 18.055 19.23C18.0685 19.1641 18.0685 19.096 18.055 19.03C19.2572 18.8067 20.3646 18.2272 21.2334 17.3667C22.195 16.3334 22.74 14.9834 22.7634 13.5734C23.3873 13.5344 24.0058 13.4339 24.61 13.2734C25.0767 13.1312 25.5206 12.9367 25.9417 12.69C25.6975 12.9948 25.4957 13.3312 25.3417 13.69C25.0467 14.34 24.925 15.0567 24.9917 15.77C25.0139 15.9656 25.075 16.1484 25.175 16.3184L25.025 16.4184C24.745 16.685 24.5334 17.015 24.41 17.3834C24.2068 17.9242 24.1813 18.5156 24.3371 19.0719C24.493 19.6281 24.8221 20.1202 25.2767 20.4767C26.378 21.3774 27.7081 21.9539 29.1184 22.1417C29.3406 22.1584 29.5628 22.1584 29.785 22.1417C30.55 23.1217 31.365 24.0534 32.0134 25.085C32.43 25.755 32.745 26.4851 32.945 27.2484C33.0839 27.7939 33.1784 28.3484 33.2284 28.9117C33.2695 29.4328 33.2695 29.9539 33.2284 30.475C33.2004 31.735 32.8568 32.9678 32.2291 34.0606C31.6013 35.1534 30.7094 36.0712 29.635 36.73L29.5667 36.7317ZM19.42 5.19005L20.185 6.67172C20.2162 6.72808 20.2584 6.77764 20.309 6.81748C20.3596 6.85732 20.4177 6.88664 20.4798 6.90372C20.5419 6.9208 20.6068 6.9253 20.6706 6.91694C20.7345 6.90858 20.7961 6.88754 20.8517 6.85505C20.9651 6.79168 21.0494 6.68666 21.0867 6.56223C21.1241 6.43779 21.1115 6.30371 21.0517 6.18838L20.485 4.82505L20.3017 3.85838C20.3017 3.17672 20.3017 2.86172 20.6184 2.77838C21.03 2.74172 21.445 2.79838 21.8317 2.94505C22.4567 3.13505 23.11 3.21338 23.7617 3.17838C24.0684 3.11505 24.3572 3.00394 24.6284 2.84505C24.96 2.64505 25.2917 2.36172 25.6417 2.12838C25.9917 1.89505 25.875 1.87838 26.0084 1.91172C26.1417 1.94505 26.225 2.14505 26.3417 2.27838C26.4995 2.51727 26.6711 2.74505 26.8567 2.96172C27.0422 3.16727 27.2584 3.33394 27.505 3.46172C28.3717 3.68338 29.2917 3.55672 30.0667 3.11172C30.35 2.99505 30.6167 2.86172 30.8834 2.77838H31.0667C31.1334 3.05616 31.1661 3.33894 31.165 3.62672L30.9317 4.75838L30.2817 6.15505C30.2036 6.27768 30.1756 6.42566 30.2035 6.56836C30.2314 6.71106 30.3131 6.83757 30.4317 6.92172C30.495 6.96273 30.5663 6.98977 30.6408 7.00102C30.7154 7.01228 30.7915 7.00749 30.8641 6.98698C30.9367 6.96648 31.004 6.93072 31.0617 6.8821C31.1193 6.83348 31.1659 6.77312 31.1984 6.70505L32.08 5.17338L32.5134 3.74338C32.6197 3.37755 32.6404 2.99215 32.5739 2.61702C32.5075 2.24189 32.3556 1.88708 32.13 1.58005C31.7987 1.35207 31.412 1.21779 31.0107 1.19139C30.6094 1.16499 30.2084 1.24744 29.85 1.43005L28.7867 1.71338C28.6034 1.71338 28.4534 1.84672 28.32 1.71338C28.1867 1.58005 28.0534 1.36338 27.9034 1.14672C27.722 0.859307 27.4977 0.601325 27.2384 0.381716C27.0047 0.215895 26.7381 0.102219 26.4567 0.0483828C26.0676 -0.0427314 25.6596 -0.00770961 25.2917 0.148383C24.8528 0.349494 24.4484 0.605049 24.0784 0.915049C23.885 1.10283 23.6628 1.24727 23.4117 1.34838C22.8537 1.38626 22.2932 1.34133 21.7484 1.21505C21.194 1.11399 20.6233 1.14829 20.085 1.31505C19.3684 1.59838 18.7217 2.24505 18.9867 3.94338L19.42 5.19005Z" fill="#38EBFF"/>
</g>
<defs>
<clipPath id="clip0_310_100">
<rect width="40" height="40" fill="white"/>
</clipPath>
</defs>
</svg>
